<svg width="119" height="37" viewBox="0 0 119 37" fill="none" xmlns="http://www.w3.org/2000/svg">
<g clip-path="url(#clip0_0_592)">
<path fill-rule="evenodd" clip-rule="evenodd" d="M5.49966 23H4.10245e-08V17.5003C-0.000132799 16.4125 0.322345 15.3491 0.926647 14.4445C1.53095 13.54 2.38993 12.835 3.39494 12.4187C4.39996 12.0024 5.50586 11.8935 6.57278 12.1057C7.6397 12.318 8.6197 12.8419 9.38885 13.6112C10.1581 14.3803 10.682 15.3603 10.8943 16.4272C11.1065 17.4941 10.9976 18.6 10.5813 19.6051C10.165 20.6101 9.46 21.4691 8.55546 22.0734C7.65093 22.6777 6.58749 23.0001 5.49966 23Z" fill="#8777E0"/>
<path fill-rule="evenodd" clip-rule="evenodd" d="M17 0H5.32556C3.91028 0.00322278 2.5542 0.577832 1.55552 1.59747C0.556837 2.61711 -0.00267807 3.9983 9.63844e-06 5.43731V11H11.6128C12.3217 10.9985 13.0234 10.8551 13.6778 10.5779C14.3322 10.3007 14.9264 9.89516 15.4267 9.38444C15.9269 8.87372 16.3234 8.26781 16.5933 7.60132C16.8632 6.93483 17.0014 6.2208 17 5.5V0Z" fill="#8777E0"/>
<path fill-rule="evenodd" clip-rule="evenodd" d="M17 35H5.32556C3.91028 34.9968 2.5542 34.4222 1.55552 33.4025C0.556837 32.3829 -0.00267807 31.0017 9.63844e-06 29.5627V24H11.6128C12.3217 24.0015 13.0234 24.1449 13.6778 24.4221C14.3322 24.6993 14.9264 25.1048 15.4267 25.6156C15.9269 26.1263 16.3234 26.7322 16.5933 27.3987C16.8632 28.0652 17.0014 28.7792 17 29.5V35Z" fill="#8777E0"/>
<path d="M27.997 18.0536V22.6485H35.9435V26H24.4833V7.07983H35.8084V10.4314H27.997V14.729H35.1327V18.0536H27.997Z" fill="black"/>
<path d="M44.5216 21.9457L48.0624 12.4856H51.6032L46.5758 26H42.4674L37.44 12.4856H40.9808L44.5216 21.9457Z" fill="black"/>
<path d="M62.7547 12.4856H66.1063V26H62.7547V24.5945C61.7456 25.7838 60.4392 26.3785 58.8355 26.3785C57.4841 26.3785 56.2948 26.0721 55.2677 25.4595C54.2406 24.8468 53.4477 23.9999 52.8891 22.9188C52.3305 21.8376 52.0513 20.6213 52.0513 19.2699C52.0513 17.9184 52.3305 16.7021 52.8891 15.621C53.4477 14.5398 54.2406 13.6929 55.2677 13.0802C56.2948 12.4496 57.4841 12.1342 58.8355 12.1342C60.4032 12.1342 61.7096 12.7289 62.7547 13.9181V12.4856ZM58.9166 23.2431C60.0158 23.2431 60.9257 22.8647 61.6465 22.1079C62.3853 21.3511 62.7547 20.3961 62.7547 19.2428C62.7547 18.0896 62.3943 17.1436 61.6735 16.4048C60.9528 15.666 60.0338 15.2966 58.9166 15.2966C57.8715 15.2966 57.0156 15.684 56.3488 16.4589C55.6821 17.2337 55.3488 18.1707 55.3488 19.2699C55.3488 20.3871 55.6821 21.3331 56.3488 22.1079C57.0156 22.8647 57.8715 23.2431 58.9166 23.2431Z" fill="black"/>
</g>
<defs>
<clipPath id="clip0_0_592">
<rect width="118.62" height="36.3175" fill="white" transform="translate(0.193359 0.341309)"/>
</clipPath>
</defs>
</svg>
