<svg width="31" height="31" viewBox="0 0 31 31" fill="none" xmlns="http://www.w3.org/2000/svg">
<path d="M15.5 0.383545C6.93625 0.383545 0 7.32367 0 15.8835C0 22.7333 4.44075 28.5419 10.5981 30.5892C11.3731 30.7351 11.6573 30.2559 11.6573 29.8439C11.6573 29.4757 11.6444 28.5005 11.6379 27.2089C7.32633 28.144 6.417 25.1293 6.417 25.1293C5.71175 23.3403 4.69262 22.8624 4.69262 22.8624C3.28858 21.9014 4.80113 21.9208 4.80113 21.9208C6.35758 22.0293 7.17521 23.5173 7.17521 23.5173C8.55729 25.8875 10.8035 25.2029 11.6896 24.8064C11.8291 23.804 12.2282 23.1208 12.6713 22.7333C9.22896 22.3458 5.611 21.0128 5.611 15.0737C5.611 13.3816 6.21162 11.9995 7.20621 10.9145C7.03183 10.5231 6.50871 8.9473 7.34183 6.81217C7.34183 6.81217 8.63996 6.39625 11.6043 8.40092C12.8443 8.05605 14.1618 7.88554 15.4793 7.87779C16.7968 7.88554 18.1143 8.05605 19.3543 8.40092C22.2993 6.39625 23.5975 6.81217 23.5975 6.81217C24.4306 8.9473 23.9075 10.5231 23.7525 10.9145C24.7406 11.9995 25.3412 13.3816 25.3412 15.0737C25.3412 21.0283 21.7181 22.3393 18.2693 22.7203C18.8118 23.1853 19.3156 24.136 19.3156 25.5878C19.3156 27.6623 19.2962 29.3285 19.2962 29.8323C19.2962 30.2391 19.5675 30.7235 20.3618 30.5685C26.5631 28.5354 31 22.7229 31 15.8835C31 7.32367 24.0599 0.383545 15.5 0.383545Z" fill="black"/>
</svg>
