<svg width="38" height="40" viewBox="0 0 38 40" fill="none" xmlns="http://www.w3.org/2000/svg">
<path d="M29.1773 23.0408C25.7867 14.9053 13.6791 17.0801 13.2792 25.8457C11.6536 26.3062 10.2495 27.3392 9.32591 28.754C8.40234 30.1688 8.02166 31.8699 8.25413 33.5435C8.48659 35.217 9.31651 36.75 10.5907 37.8595C11.8649 38.9689 13.4974 39.58 15.1869 39.58H29.1853C31.3784 39.58 33.4817 38.7087 35.0324 37.1579C36.5832 35.607 37.4544 33.5036 37.4544 31.3104C37.4544 29.1172 36.5832 27.0138 35.0324 25.4629C33.4817 23.9121 31.3784 23.0408 29.1853 23.0408H29.1773ZM27.0846 29.2175L21.9942 34.3053C21.9351 34.3644 21.865 34.4113 21.7878 34.4433C21.7105 34.4753 21.6278 34.4918 21.5442 34.4918C21.4606 34.4918 21.3779 34.4753 21.3007 34.4433C21.2235 34.4113 21.1533 34.3644 21.0943 34.3053L18.5496 31.7604C18.4474 31.6379 18.3948 31.4817 18.402 31.3223C18.4092 31.163 18.4757 31.0121 18.5885 30.8993C18.7012 30.7866 18.8521 30.72 19.0114 30.7129C19.1707 30.7057 19.327 30.7583 19.4494 30.8604L21.5422 32.9603L26.1797 28.3166C26.3022 28.2144 26.4584 28.1618 26.6177 28.169C26.777 28.1762 26.9279 28.2427 27.0407 28.3555C27.1534 28.4683 27.22 28.6191 27.2272 28.7785C27.2344 28.9378 27.1817 29.094 27.0796 29.2165L27.0846 29.2175Z" fill="#C4A2FC"/>
<path d="M17.7276 0.140015H2.46139C1.95541 0.140015 1.47016 0.341026 1.11238 0.698827C0.754602 1.05663 0.553604 1.54191 0.553604 2.04792V30.0385C0.553604 30.5445 0.754602 31.0298 1.11238 31.3876C1.47016 31.7454 1.95541 31.9464 2.46139 31.9464H17.7276C17.9783 31.9465 18.2264 31.8973 18.458 31.8015C18.6896 31.7056 18.9 31.5651 19.0773 31.3879C19.2546 31.2108 19.3952 31.0004 19.4911 30.7688C19.587 30.5373 19.6364 30.2891 19.6364 30.0385V2.04792C19.6364 1.79728 19.587 1.54911 19.4911 1.31756C19.3952 1.08602 19.2546 0.875651 19.0773 0.698473C18.9 0.521295 18.6896 0.380781 18.458 0.284958C18.2264 0.189136 17.9783 0.139884 17.7276 0.140015ZM13.9111 7.77363C13.2362 7.77363 12.5889 8.04175 12.1117 8.519C11.6345 8.99626 11.3664 9.64356 11.3664 10.3185V17.3181C11.3664 17.6556 11.2323 17.9793 10.9937 18.2179C10.7551 18.4565 10.4315 18.5906 10.094 18.5906C9.75657 18.5906 9.43294 18.4565 9.19432 18.2179C8.95571 17.9793 8.82166 17.6556 8.82166 17.3181V15.4072C8.82837 15.0689 8.76752 14.7325 8.64267 14.418C8.51783 14.1034 8.33149 13.8169 8.09458 13.5752C7.85766 13.3335 7.57492 13.1416 7.26291 13.0105C6.95089 12.8794 6.61587 12.8119 6.27745 12.8119C5.93903 12.8119 5.60401 12.8794 5.29199 13.0105C4.97998 13.1416 4.69724 13.3335 4.46032 13.5752C4.22341 13.8169 4.03707 14.1034 3.91223 14.418C3.78738 14.7325 3.72653 15.0689 3.73324 15.4072V19.224C3.73324 19.5614 3.59924 19.8849 3.36072 20.1234C3.1222 20.362 2.7987 20.496 2.46139 20.496H1.82546V5.22876H18.3636V12.8624H17.7276C17.5603 12.8629 17.3945 12.8304 17.2397 12.7667C17.0849 12.703 16.9442 12.6094 16.8257 12.4912C16.7072 12.3731 16.6131 12.2327 16.549 12.0781C16.4848 11.9235 16.4518 11.7578 16.4518 11.5904V10.3175C16.4515 9.64342 16.1839 8.99699 15.7075 8.52006C15.2312 8.04314 14.5851 7.77469 13.9111 7.77363ZM1.82546 21.7729H2.46139C3.13629 21.7729 3.78354 21.5048 4.26077 21.0275C4.73799 20.5503 5.0061 19.903 5.0061 19.228V15.4072C5.0061 15.0698 5.14015 14.7461 5.37876 14.5075C5.61737 14.2689 5.941 14.1348 6.27845 14.1348C6.6159 14.1348 6.93953 14.2689 7.17814 14.5075C7.41675 14.7461 7.55081 15.0698 7.55081 15.4072V17.3151C7.5441 17.6535 7.60495 17.9898 7.72979 18.3044C7.85464 18.619 8.04097 18.9055 8.27789 19.1472C8.5148 19.3888 8.79754 19.5808 9.10956 19.7119C9.42157 19.8429 9.75659 19.9105 10.095 19.9105C10.4334 19.9105 10.7685 19.8429 11.0805 19.7119C11.3925 19.5808 11.6752 19.3888 11.9121 19.1472C12.1491 18.9055 12.3354 18.619 12.4602 18.3044C12.5851 17.9898 12.6459 17.6535 12.6392 17.3151V10.3155C12.6392 9.97803 12.7733 9.65438 13.0119 9.41575C13.2505 9.17712 13.5741 9.04306 13.9116 9.04306C14.249 9.04306 14.5727 9.17712 14.8113 9.41575C15.0499 9.65438 15.1839 9.97803 15.1839 10.3155V11.5874C15.183 11.9221 15.2481 12.2537 15.3755 12.5632C15.5029 12.8727 15.6901 13.1541 15.9264 13.3911C16.1627 13.6281 16.4434 13.8162 16.7525 13.9446C17.0616 14.073 17.393 14.1392 17.7276 14.1393H18.3636V25.5847H1.82546V21.7729ZM2.46139 1.41195H17.7276C17.8963 1.41195 18.0581 1.47895 18.1773 1.59822C18.2966 1.71749 18.3636 1.87925 18.3636 2.04792V3.95682H1.82546V2.04792C1.82546 1.87925 1.89246 1.71749 2.01172 1.59822C2.13098 1.47895 2.29273 1.41195 2.46139 1.41195ZM17.7276 30.6735H2.46139C2.29273 30.6735 2.13098 30.6065 2.01172 30.4872C1.89246 30.3679 1.82546 30.2062 1.82546 30.0375V26.8567H18.3636V30.0385C18.3633 30.207 18.2962 30.3685 18.177 30.4875C18.0577 30.6066 17.8961 30.6735 17.7276 30.6735ZM16.4518 24.3128H12.6392C12.4706 24.3128 12.3088 24.2458 12.1896 24.1265C12.0703 24.0072 12.0033 23.8455 12.0033 23.6768C12.0033 23.5082 12.0703 23.3464 12.1896 23.2271C12.3088 23.1079 12.4706 23.0409 12.6392 23.0409H16.4518C16.6204 23.0409 16.7822 23.1079 16.9015 23.2271C17.0207 23.3464 17.0877 23.5082 17.0877 23.6768C17.0877 23.8455 17.0207 24.0072 16.9015 24.1265C16.7822 24.2458 16.6204 24.3128 16.4518 24.3128ZM16.4518 21.7679H13.9111C13.7424 21.7679 13.5807 21.7009 13.4614 21.5816C13.3422 21.4624 13.2752 21.3006 13.2752 21.1319C13.2752 20.9633 13.3422 20.8015 13.4614 20.6823C13.5807 20.563 13.7424 20.496 13.9111 20.496H16.4518C16.5353 20.496 16.618 20.5124 16.6951 20.5444C16.7723 20.5764 16.8424 20.6232 16.9015 20.6823C16.9605 20.7413 17.0074 20.8114 17.0393 20.8886C17.0713 20.9657 17.0877 21.0484 17.0877 21.1319C17.0877 21.2155 17.0713 21.2982 17.0393 21.3753C17.0074 21.4525 16.9605 21.5226 16.9015 21.5816C16.8424 21.6407 16.7723 21.6875 16.6951 21.7195C16.618 21.7515 16.5353 21.7679 16.4518 21.7679ZM7.5528 9.04556H5.0061C4.83744 9.04556 4.67569 8.97856 4.55643 8.85929C4.43717 8.74002 4.37017 8.57826 4.37017 8.4096C4.37017 8.24093 4.43717 8.07916 4.55643 7.9599C4.67569 7.84063 4.83744 7.77363 5.0061 7.77363H7.5528C7.72146 7.77363 7.88321 7.84063 8.00247 7.9599C8.12173 8.07916 8.18873 8.24093 8.18873 8.4096C8.18873 8.57826 8.12173 8.74002 8.00247 8.85929C7.88321 8.97856 7.72146 9.04556 7.5528 9.04556ZM12.6412 29.4015H7.5528C7.38415 29.4015 7.2224 29.3345 7.10314 29.2153C6.98388 29.096 6.91688 28.9342 6.91688 28.7656C6.91688 28.5969 6.98388 28.4351 7.10314 28.3159C7.2224 28.1966 7.38415 28.1296 7.5528 28.1296H12.6412C12.8099 28.1296 12.9716 28.1966 13.0909 28.3159C13.2102 28.4351 13.2772 28.5969 13.2772 28.7656C13.2772 28.9342 13.2102 29.096 13.0909 29.2153C12.9716 29.3345 12.8099 29.4015 12.6412 29.4015Z" fill="#151A6A"/>
</svg>
