<svg width="36" height="35" viewBox="0 0 36 35" fill="none" xmlns="http://www.w3.org/2000/svg">
<path d="M32.9775 21.7673C32.9775 21.6202 32.919 21.4791 32.815 21.375C32.7109 21.271 32.5697 21.2126 32.4226 21.2126C29.6276 21.2107 26.9475 20.1003 24.9707 18.125C22.9938 16.1497 21.8818 13.471 21.8786 10.6768C21.8786 10.5297 21.8201 10.3886 21.7161 10.2846C21.612 10.1805 21.4708 10.1221 21.3237 10.1221C21.1765 10.1221 21.0353 10.1805 20.9313 10.2846C20.8272 10.3886 20.7687 10.5297 20.7687 10.6768C20.7669 13.4701 19.6568 16.1486 17.6819 18.1247C15.7071 20.1008 13.0289 21.2131 10.2348 21.2176C10.0876 21.2176 9.94642 21.276 9.84235 21.38C9.73828 21.4841 9.67981 21.6252 9.67981 21.7723C9.67981 21.9195 9.73828 22.0606 9.84235 22.1646C9.94642 22.2687 10.0876 22.3271 10.2348 22.3271C13.0289 22.3289 15.7082 23.4387 17.6849 25.4129C19.6616 27.3871 20.7742 30.0645 20.7787 32.8578C20.7787 33.0049 20.8372 33.1461 20.9413 33.2501C21.0453 33.3541 21.1865 33.4126 21.3337 33.4126C21.4808 33.4126 21.622 33.3541 21.7261 33.2501C21.8301 33.1461 21.8886 33.0049 21.8886 32.8578C21.8905 30.0645 23.0006 27.3861 24.9754 25.41C26.9502 23.4339 29.6284 22.3216 32.4226 22.3171C32.5697 22.3171 32.7109 22.2587 32.815 22.1546C32.919 22.0506 32.9775 21.9095 32.9775 21.7623V21.7673Z" fill="#C4A2FC"/>
<path d="M34.6422 29.5305C33.7595 29.5297 32.9132 29.1788 32.2891 28.5549C31.6649 27.9309 31.314 27.0849 31.3132 26.2025C31.3163 26.1277 31.3043 26.0531 31.2779 25.9831C31.2515 25.9131 31.2111 25.8491 31.1593 25.7951C31.1075 25.741 31.0453 25.698 30.9765 25.6687C30.9076 25.6393 30.8335 25.6241 30.7587 25.6241C30.6838 25.6241 30.6097 25.6393 30.5408 25.6687C30.472 25.698 30.4098 25.741 30.358 25.7951C30.3062 25.8491 30.2658 25.9131 30.2394 25.9831C30.213 26.0531 30.201 26.1277 30.2042 26.2025C30.2034 27.0847 29.8525 27.9306 29.2286 28.5545C28.6047 29.1784 27.7586 29.5294 26.8762 29.5305C26.8014 29.5273 26.7267 29.5393 26.6566 29.5657C26.5866 29.5922 26.5226 29.6325 26.4686 29.6843C26.4145 29.736 26.3715 29.7982 26.3421 29.8671C26.3128 29.9359 26.2976 30.01 26.2976 30.0848C26.2976 30.1597 26.3128 30.2337 26.3421 30.3026C26.3715 30.3714 26.4145 30.4336 26.4686 30.4854C26.5226 30.5372 26.5866 30.5775 26.6566 30.6039C26.7267 30.6303 26.8014 30.6423 26.8762 30.6392C27.7586 30.6402 28.6047 30.9912 29.2286 31.6151C29.8525 32.239 30.2034 33.0849 30.2042 33.9671C30.2102 34.1101 30.2713 34.2451 30.3746 34.3441C30.478 34.4431 30.6155 34.4984 30.7587 34.4984C30.9018 34.4984 31.0394 34.4431 31.1427 34.3441C31.246 34.2451 31.3071 34.1101 31.3132 33.9671C31.314 33.0847 31.6649 32.2387 32.2891 31.6148C32.9132 30.9908 33.7595 30.6399 34.6422 30.6392C34.715 30.6392 34.7872 30.6248 34.8545 30.5969C34.9219 30.569 34.9831 30.5282 35.0346 30.4766C35.0861 30.4251 35.127 30.364 35.1549 30.2966C35.1828 30.2293 35.1972 30.1572 35.1972 30.0843C35.1972 30.0115 35.1828 29.9393 35.1549 29.872C35.127 29.8047 35.0861 29.7435 35.0346 29.692C34.9831 29.6405 34.9219 29.5996 34.8545 29.5717C34.7872 29.5438 34.715 29.5305 34.6422 29.5305Z" fill="#C4A2FC"/>
<path d="M26.8762 14.0039C27.7588 14.0047 28.6051 14.3556 29.2293 14.9795C29.8534 15.6035 30.2044 16.4495 30.2052 17.3319C30.202 17.4067 30.214 17.4813 30.2404 17.5513C30.2669 17.6213 30.3072 17.6853 30.359 17.7393C30.4108 17.7934 30.473 17.8364 30.5419 17.8657C30.6107 17.8951 30.6848 17.9102 30.7597 17.9102C30.8345 17.9102 30.9086 17.8951 30.9775 17.8657C31.0464 17.8364 31.1086 17.7934 31.1604 17.7393C31.2122 17.6853 31.2525 17.6213 31.2789 17.5513C31.3054 17.4813 31.3174 17.4067 31.3142 17.3319C31.3152 16.4497 31.6663 15.6039 32.2904 14.9802C32.9146 14.3564 33.7607 14.0057 34.6432 14.0049C34.7904 14.0049 34.9315 13.9464 35.0356 13.8424C35.1397 13.7383 35.1982 13.5972 35.1982 13.4501C35.1982 13.3029 35.1397 13.1618 35.0356 13.0577C34.9315 12.9537 34.7904 12.8952 34.6432 12.8952C33.7605 12.8944 32.9142 12.5436 32.2901 11.9196C31.666 11.2957 31.315 10.4497 31.3142 9.56727C31.3174 9.49249 31.3054 9.41785 31.2789 9.34782C31.2525 9.2778 31.2122 9.21385 31.1604 9.15981C31.1086 9.10578 31.0464 9.06278 30.9775 9.03341C30.9086 9.00404 30.8345 8.98889 30.7597 8.98889C30.6848 8.98889 30.6107 9.00404 30.5419 9.03341C30.473 9.06278 30.4108 9.10578 30.359 9.15981C30.3072 9.21385 30.2669 9.2778 30.2404 9.34782C30.214 9.41785 30.202 9.49249 30.2052 9.56727C30.2044 10.4495 29.8535 11.2954 29.2296 11.9193C28.6057 12.5432 27.7597 12.8942 26.8772 12.8952C26.73 12.8952 26.5888 12.9537 26.4847 13.0577C26.3806 13.1618 26.3222 13.3029 26.3222 13.4501C26.3222 13.5972 26.3806 13.7383 26.4847 13.8424C26.5888 13.9464 26.73 14.0049 26.8772 14.0049L26.8762 14.0039Z" fill="#C4A2FC"/>
<path d="M24.2225 25.085C23.7892 22.9452 22.7685 20.9682 21.2745 19.3757C19.7806 17.7832 17.8726 16.6381 15.7643 16.0687C16.932 15.5004 17.9166 14.6157 18.606 13.5155C19.2955 12.4152 19.662 11.1435 19.6639 9.8452V7.07133C19.6639 5.23293 18.9334 3.46983 17.6331 2.16989C16.3327 0.869948 14.5691 0.139648 12.7301 0.139648C10.8911 0.139648 9.1275 0.869948 7.82716 2.16989C6.52682 3.46983 5.79629 5.23293 5.79629 7.07133V9.8442C5.79821 11.1425 6.16475 12.4142 6.85418 13.5145C7.54361 14.6147 8.52822 15.4994 9.69591 16.0677C7.58761 16.6371 5.67959 17.7822 4.18567 19.3747C2.69176 20.9672 1.67099 22.9442 1.23774 25.084L0.813786 27.2021C0.797662 27.2826 0.799601 27.3657 0.819464 27.4453C0.839326 27.5249 0.876618 27.5992 0.92865 27.6627C0.980682 27.7262 1.04616 27.7773 1.12036 27.8125C1.19456 27.8476 1.27563 27.8658 1.35773 27.8659H24.1025C24.1846 27.8658 24.2657 27.8476 24.3399 27.8125C24.4141 27.7773 24.4795 27.7262 24.5316 27.6627C24.5836 27.5992 24.6209 27.5249 24.6408 27.4453C24.6606 27.3657 24.6626 27.2826 24.6464 27.2021L24.2225 25.085ZM6.90418 7.07133C6.88401 6.30121 7.01698 5.53475 7.29539 4.8164C7.5738 4.09806 7.99211 3.44212 8.52606 2.88663C9.06001 2.33115 9.69896 1.88717 10.4059 1.58045C11.1128 1.27373 11.8736 1.11037 12.6441 1.09985C13.4147 1.08933 14.1796 1.23186 14.8947 1.51916C15.6097 1.80647 16.2605 2.23284 16.8094 2.77354C17.3584 3.31424 17.7944 3.95851 18.0924 4.66899C18.3903 5.37947 18.5442 6.14201 18.545 6.91239C17.2268 6.29372 16.0497 5.4112 15.0864 4.31945C15.0328 4.26279 14.9683 4.21765 14.8967 4.1868C14.825 4.15595 14.7479 4.14004 14.6699 4.14004C14.5919 4.14004 14.5148 4.15595 14.4432 4.1868C14.3716 4.21765 14.307 4.26279 14.2535 4.31945C13.3266 5.37093 12.1992 6.22692 10.9372 6.83729C9.67526 7.44765 8.30414 7.8001 6.90418 7.874V7.07133ZM6.90418 9.8442V8.98455C9.84001 8.84512 12.6144 7.60065 14.6704 5.50097C15.7746 6.62886 17.0952 7.52234 18.553 8.1279V9.8442C18.553 11.3885 17.9394 12.8695 16.8471 13.9614C15.7548 15.0534 14.2733 15.6668 12.7286 15.6668C11.1839 15.6668 9.70241 15.0534 8.61012 13.9614C7.51783 12.8695 6.90418 11.3885 6.90418 9.8442ZM2.03567 26.7573L2.32664 25.3019C2.8081 22.898 4.1077 20.735 6.00439 19.1809C7.90108 17.6268 10.2777 16.7776 12.7301 16.7776C15.1825 16.7776 17.5591 17.6268 19.4558 19.1809C21.3525 20.735 22.6521 22.898 23.1336 25.3019L23.4245 26.7573H2.03567Z" fill="#151A6A"/>
<path d="M9.82025 20.8437L7.27625 23.7048L6.21125 22.5052C6.16377 22.4476 6.10518 22.4003 6.03896 22.3659C5.97275 22.3315 5.90029 22.3108 5.82589 22.305C5.7515 22.2993 5.67671 22.3086 5.606 22.3324C5.53529 22.3562 5.4701 22.394 5.41434 22.4436C5.35857 22.4931 5.31338 22.5534 5.28145 22.6208C5.24953 22.6882 5.23153 22.7614 5.22854 22.8359C5.22554 22.9105 5.23761 22.9848 5.26402 23.0546C5.29043 23.1244 5.33064 23.1881 5.38225 23.242L6.86125 24.9054C6.91331 24.9639 6.97716 25.0107 7.0486 25.0427C7.12004 25.0747 7.19745 25.0913 7.27575 25.0913C7.35404 25.0913 7.43145 25.0747 7.50289 25.0427C7.57433 25.0107 7.63818 24.9639 7.69025 24.9054L10.6492 21.5785C10.7009 21.5246 10.7411 21.4609 10.7675 21.3911C10.7939 21.3213 10.806 21.247 10.803 21.1724C10.8 21.0979 10.782 21.0248 10.75 20.9573C10.7181 20.8899 10.6729 20.8296 10.6172 20.7801C10.5614 20.7305 10.4962 20.6927 10.4255 20.6689C10.3548 20.6451 10.28 20.6358 10.2056 20.6415C10.1312 20.6473 10.0587 20.668 9.99253 20.7024C9.92632 20.7368 9.86772 20.7841 9.82025 20.8417V20.8437Z" fill="#151A6A"/>
</svg>
