<svg width="38" height="38" viewBox="0 0 38 38" fill="none" xmlns="http://www.w3.org/2000/svg">
<path d="M24.9656 12.1167C22.4878 12.1167 20.0656 12.8514 18.0054 14.2278C15.9451 15.6043 14.3394 17.5606 13.3911 19.8496C12.4429 22.1385 12.1948 24.6572 12.6782 27.0871C13.1616 29.5171 14.3548 31.7491 16.1069 33.501C17.859 35.2528 20.0913 36.4459 22.5215 36.9292C24.9517 37.4126 27.4707 37.1645 29.7599 36.2164C32.0491 35.2683 34.0057 33.6627 35.3823 31.6027C36.7589 29.5427 37.4937 27.1208 37.4937 24.6433C37.4937 21.321 36.1738 18.1349 33.8243 15.7857C31.4748 13.4365 28.2883 12.1167 24.9656 12.1167ZM29.7499 25.2072L21.8231 29.53C21.7321 29.5784 21.6301 29.6026 21.5271 29.6002C21.424 29.5978 21.3233 29.5689 21.2347 29.5162C21.1461 29.4636 21.0725 29.389 21.0211 29.2996C20.9697 29.2103 20.9422 29.1092 20.9412 29.0061V20.3605C20.9422 20.2574 20.9697 20.1563 21.0211 20.067C21.0725 19.9776 21.1461 19.903 21.2347 19.8504C21.3233 19.7977 21.424 19.7688 21.5271 19.7664C21.6301 19.764 21.7321 19.7882 21.8231 19.8366L29.7499 24.1604C29.8432 24.2125 29.9209 24.2885 29.975 24.3805C30.029 24.4726 30.0576 24.5775 30.0576 24.6843C30.0576 24.7911 30.029 24.896 29.975 24.9881C29.9209 25.0802 29.8432 25.1551 29.7499 25.2072Z" fill="#C4A2FC"/>
<path d="M18.7087 0.42604L8.08331 6.4984L2.15021 6.99326C1.70317 7.03214 1.28678 7.2366 0.982689 7.56654C0.678602 7.89649 0.508755 8.32811 0.506454 8.77678V14.9321C0.508935 15.3801 0.678475 15.8111 0.981916 16.1408C1.28536 16.4704 1.70087 16.6751 2.14721 16.7146L8.06931 17.2085L18.6537 23.7587C18.9247 23.9264 19.2356 24.0187 19.5542 24.0261C19.8729 24.0335 20.1877 23.9556 20.4661 23.8006C20.7446 23.6456 20.9766 23.419 21.1382 23.1443C21.2998 22.8697 21.3851 22.5568 21.3853 22.2381V1.97662C21.3847 1.66345 21.302 1.35591 21.1453 1.08473C20.9887 0.813552 20.7636 0.588228 20.4925 0.431275C20.2215 0.274321 19.914 0.191234 19.6008 0.190315C19.2876 0.189397 18.9806 0.270679 18.7087 0.42604ZM1.69927 14.9311V8.77678C1.70018 8.6275 1.75673 8.48392 1.85787 8.3741C1.95901 8.26429 2.09747 8.19613 2.24619 8.18294L7.66437 7.73306V15.9808L2.24619 15.525C2.09747 15.5118 1.95901 15.4436 1.85787 15.3338C1.75673 15.224 1.70018 15.0804 1.69927 14.9311ZM20.1965 22.2381C20.1953 22.3438 20.1662 22.4474 20.1121 22.5382C20.0581 22.6291 19.9809 22.704 19.8886 22.7554C19.7962 22.8069 19.6919 22.833 19.5862 22.8312C19.4805 22.8294 19.3771 22.7996 19.2866 22.745L8.85819 16.2927V7.42814L19.2986 1.46276C19.3893 1.41157 19.4917 1.38485 19.5958 1.38522C19.6999 1.38559 19.8021 1.41305 19.8924 1.46489C19.9827 1.51674 20.0579 1.59118 20.1107 1.6809C20.1635 1.77062 20.192 1.87253 20.1935 1.97662L20.1965 22.2381Z" fill="#151A6A"/>
<path d="M23.5058 8.32467C23.365 8.39606 23.2581 8.52006 23.2081 8.66979C23.1581 8.81952 23.1692 8.98291 23.2389 9.12455C23.6909 9.96264 23.9275 10.8999 23.9275 11.8521C23.9275 12.8043 23.6909 13.7416 23.2389 14.5797C23.1859 14.7188 23.1864 14.8725 23.2405 15.0111C23.2945 15.1498 23.3981 15.2634 23.5312 15.3299C23.6642 15.3965 23.8173 15.4112 23.9606 15.3712C24.1039 15.3312 24.2273 15.2394 24.3067 15.1136C24.8394 14.109 25.1179 12.9892 25.1179 11.8521C25.1179 10.715 24.8394 9.59523 24.3067 8.59063C24.2351 8.44976 24.1109 8.34282 23.9609 8.29302C23.811 8.24323 23.6474 8.2546 23.5058 8.32467Z" fill="#151A6A"/>
<path d="M27.7692 6.34324C27.74 6.2641 27.6945 6.19201 27.6356 6.13165C27.5766 6.0713 27.5057 6.02405 27.4272 5.99298C27.3488 5.96192 27.2647 5.94773 27.1805 5.95136C27.0962 5.95499 27.0136 5.97634 26.9382 6.01403C26.8627 6.05172 26.7961 6.1049 26.7425 6.17009C26.689 6.23528 26.6499 6.31102 26.6276 6.39237C26.6054 6.47372 26.6005 6.55885 26.6134 6.6422C26.6263 6.72555 26.6566 6.80525 26.7023 6.8761C27.5262 8.4043 27.9575 10.1132 27.9575 11.8492C27.9575 13.5853 27.5262 15.2942 26.7023 16.8224C26.6566 16.8933 26.6263 16.9729 26.6134 17.0563C26.6005 17.1396 26.6054 17.2248 26.6276 17.3061C26.6499 17.3875 26.689 17.4632 26.7425 17.5284C26.7961 17.5936 26.8627 17.6468 26.9382 17.6845C27.0136 17.7222 27.0962 17.7435 27.1805 17.7471C27.2647 17.7508 27.3488 17.7366 27.4272 17.7055C27.5057 17.6745 27.5766 17.6272 27.6356 17.5668C27.6945 17.5065 27.74 17.4344 27.7692 17.3553C28.6688 15.6594 29.1391 13.7689 29.1391 11.8492C29.1391 9.92958 28.6688 8.03914 27.7692 6.34324Z" fill="#151A6A"/>
</svg>
