<svg width="38" height="37" viewBox="0 0 38 37" fill="none" xmlns="http://www.w3.org/2000/svg">
<path d="M24.9656 11.421C22.4878 11.421 20.0656 12.1556 18.0053 13.5318C15.9451 14.908 14.3393 16.864 13.3911 19.1526C12.4429 21.4411 12.1948 23.9594 12.6782 26.3889C13.1616 28.8184 14.3548 31.0501 16.1069 32.8017C17.859 34.5532 20.0913 35.7461 22.5215 36.2294C24.9517 36.7126 27.4707 36.4646 29.7599 35.5166C32.0491 34.5687 34.0058 32.9634 35.3824 30.9037C36.759 28.8441 37.4938 26.4226 37.4938 23.9455C37.4938 20.6238 36.1738 17.4382 33.8243 15.0894C31.4749 12.7406 28.2883 11.421 24.9656 11.421ZM30.4478 29.4261C29.4393 30.4306 28.1736 31.1382 26.7895 31.4715C25.4054 31.8047 23.9563 31.7506 22.6009 31.3152C21.2455 30.8797 20.0362 30.0798 19.1054 29.0029C18.1745 27.926 17.5581 26.6138 17.3237 25.21L17.0378 25.4958C16.9851 25.5612 16.9192 25.6148 16.8444 25.6531C16.7697 25.6914 16.6877 25.7136 16.6039 25.7182C16.52 25.7229 16.4361 25.7098 16.3576 25.68C16.2791 25.6501 16.2077 25.6041 16.1481 25.545C16.0885 25.4858 16.042 25.4148 16.0115 25.3365C15.9811 25.2582 15.9675 25.1744 15.9715 25.0906C15.9756 25.0067 15.9972 24.9246 16.035 24.8496C16.0728 24.7746 16.1259 24.7084 16.1909 24.6552L17.3837 23.4627C17.4962 23.3507 17.6484 23.2878 17.8072 23.2878C17.9659 23.2878 18.1182 23.3507 18.2306 23.4627L19.4234 24.6552C19.5144 24.7687 19.5609 24.9114 19.5545 25.0567C19.548 25.202 19.489 25.34 19.3883 25.445C19.2877 25.55 19.1523 25.6149 19.0074 25.6275C18.8625 25.6402 18.7179 25.5998 18.6006 25.5138C18.879 26.642 19.4523 27.676 20.2617 28.5101C21.071 29.3441 22.0875 29.9482 23.2071 30.2607C24.3266 30.5731 25.5092 30.5827 26.6336 30.2883C27.7581 29.994 28.7842 29.4063 29.6069 28.5855C29.7224 28.4973 29.866 28.4541 30.0109 28.4637C30.1559 28.4734 30.2924 28.5354 30.3952 28.6381C30.4979 28.7408 30.5599 28.8773 30.5696 29.0222C30.5792 29.1671 30.536 29.3107 30.4478 29.4261ZM33.7413 23.1758L32.5485 24.3683C32.436 24.4803 32.2838 24.5432 32.125 24.5432C31.9663 24.5432 31.8141 24.4803 31.7016 24.3683L30.5078 23.1758C30.4186 23.0638 30.3725 22.9234 30.3778 22.7803C30.3831 22.6371 30.4394 22.5006 30.5367 22.3954C30.6339 22.2902 30.7657 22.2233 30.908 22.2068C31.0503 22.1902 31.1939 22.2251 31.3127 22.3052C31.0207 21.1877 30.4388 20.1671 29.6258 19.3465C28.8128 18.5259 27.7975 17.9345 26.6825 17.6319C25.5676 17.3294 24.3925 17.3265 23.276 17.6235C22.1596 17.9206 21.1414 18.507 20.3243 19.3235C20.2088 19.4117 20.0653 19.4549 19.9203 19.4453C19.7753 19.4356 19.6388 19.3737 19.536 19.2709C19.4333 19.1682 19.3713 19.0317 19.3617 18.8868C19.352 18.7419 19.3953 18.5984 19.4834 18.4829C20.4892 17.4789 21.7517 16.7706 23.1329 16.4352C24.5141 16.0998 25.9609 16.1504 27.3153 16.5812C28.6697 17.0121 29.8796 17.8068 30.813 18.8785C31.7463 19.9502 32.367 21.2576 32.6075 22.6581L32.8994 22.3582C33.0136 22.2826 33.1501 22.2482 33.2865 22.2609C33.4228 22.2736 33.5507 22.3325 33.6489 22.4279C33.7471 22.5233 33.8097 22.6494 33.8264 22.7853C33.843 22.9211 33.8126 23.0586 33.7403 23.1749L33.7413 23.1758Z" fill="#C4A2FC"/>
<path d="M30.3348 1.87918C30.3348 1.40465 30.1463 0.949557 29.8106 0.614014C29.475 0.278472 29.0197 0.0899658 28.5451 0.0899658H2.29598C1.82131 0.0899658 1.36608 0.278472 1.03044 0.614014C0.694802 0.949557 0.506241 1.40465 0.506241 1.87918V6.65008C0.508845 7.09128 0.674424 7.51597 0.971172 7.84256C0.674194 8.1694 0.508598 8.59448 0.506241 9.03603V13.8069C0.508845 14.2481 0.674424 14.6728 0.971172 14.9994C0.674194 15.3263 0.508598 15.7513 0.506241 16.1929V20.9638C0.506241 21.4383 0.694802 21.8934 1.03044 22.229C1.36608 22.5645 1.82131 22.753 2.29598 22.753H28.5451C29.0197 22.753 29.475 22.5645 29.8106 22.229C30.1463 21.8934 30.3348 21.4383 30.3348 20.9638V16.1929C30.3322 15.7517 30.1666 15.327 29.8699 15.0004C30.1666 14.6738 30.3322 14.2491 30.3348 13.8079V9.03603C30.3322 8.59483 30.1666 8.17014 29.8699 7.84356C30.1666 7.51697 30.3322 7.09228 30.3348 6.65108V1.87918ZM1.70006 1.87918C1.70006 1.80042 1.71558 1.72243 1.74573 1.64967C1.77588 1.57691 1.82007 1.51079 1.87577 1.4551C1.93148 1.39941 1.99761 1.35523 2.0704 1.32509C2.14318 1.29496 2.22119 1.27944 2.29997 1.27944H28.5451C28.6239 1.27944 28.7019 1.29496 28.7747 1.32509C28.8474 1.35523 28.9136 1.39941 28.9693 1.4551C29.025 1.51079 29.0692 1.57691 29.0993 1.64967C29.1295 1.72243 29.145 1.80042 29.145 1.87918V6.65008C29.145 6.80914 29.0818 6.96169 28.9693 7.07416C28.8568 7.18663 28.7042 7.24982 28.5451 7.24982H2.29598C2.13687 7.24982 1.98428 7.18663 1.87177 7.07416C1.75927 6.96169 1.69606 6.80914 1.69606 6.65008L1.70006 1.87918ZM29.141 13.8069C29.141 13.966 29.0778 14.1185 28.9653 14.231C28.8528 14.3435 28.7002 14.4067 28.5411 14.4067H2.29598C2.13687 14.4067 1.98428 14.3435 1.87177 14.231C1.75927 14.1185 1.69606 13.966 1.69606 13.8069V9.03603C1.69606 8.87697 1.75927 8.72443 1.87177 8.61195C1.98428 8.49948 2.13687 8.4363 2.29598 8.4363H28.5451C28.7042 8.4363 28.8568 8.49948 28.9693 8.61195C29.0818 8.72443 29.145 8.87697 29.145 9.03603L29.141 13.8069ZM29.141 20.9638C29.141 21.1228 29.0778 21.2754 28.9653 21.3879C28.8528 21.5003 28.7002 21.5635 28.5411 21.5635H2.29598C2.13687 21.5635 1.98428 21.5003 1.87177 21.3879C1.75927 21.2754 1.69606 21.1228 1.69606 20.9638V16.1929C1.69606 16.1141 1.71158 16.0361 1.74173 15.9634C1.77188 15.8906 1.81607 15.8245 1.87177 15.7688C1.92748 15.7131 1.99361 15.6689 2.0664 15.6388C2.13918 15.6087 2.21719 15.5931 2.29598 15.5931H28.5451C28.6239 15.5931 28.7019 15.6087 28.7747 15.6388C28.8474 15.6689 28.9136 15.7131 28.9693 15.7688C29.025 15.8245 29.0692 15.8906 29.0993 15.9634C29.1295 16.0361 29.145 16.1141 29.145 16.1929L29.141 20.9638ZM5.87544 3.66839H17.8037C17.9507 3.68434 18.0867 3.75403 18.1855 3.86407C18.2842 3.97412 18.3389 4.11677 18.3389 4.26463C18.3389 4.41249 18.2842 4.55514 18.1855 4.66519C18.0867 4.77523 17.9507 4.84492 17.8037 4.86087H5.87544C5.7284 4.84492 5.59244 4.77523 5.49366 4.66519C5.39487 4.55514 5.34024 4.41249 5.34024 4.26463C5.34024 4.11677 5.39487 3.97412 5.49366 3.86407C5.59244 3.75403 5.7284 3.68434 5.87544 3.66839ZM24.3727 4.86087V3.66839C24.3636 3.58467 24.3723 3.49997 24.3981 3.41981C24.4239 3.33965 24.4664 3.26583 24.5226 3.20315C24.5789 3.14047 24.6477 3.09034 24.7246 3.05603C24.8016 3.02171 24.8849 3.00397 24.9691 3.00397C25.0534 3.00397 25.1366 3.02171 25.2136 3.05603C25.2905 3.09034 25.3593 3.14047 25.4156 3.20315C25.4719 3.26583 25.5143 3.33965 25.5401 3.41981C25.566 3.49997 25.5746 3.58467 25.5655 3.66839V4.86087C25.5746 4.94459 25.566 5.02929 25.5401 5.10945C25.5143 5.18961 25.4719 5.26343 25.4156 5.32611C25.3593 5.38879 25.2905 5.43892 25.2136 5.47323C25.1366 5.50755 25.0534 5.52529 24.9691 5.52529C24.8849 5.52529 24.8016 5.50755 24.7246 5.47323C24.6477 5.43892 24.5789 5.38879 24.5226 5.32611C24.4664 5.26343 24.4239 5.18961 24.3981 5.10945C24.3723 5.02929 24.3636 4.94459 24.3727 4.86087ZM21.9861 4.86087V3.66839C22.002 3.52139 22.0717 3.38547 22.1818 3.28672C22.2919 3.18796 22.4346 3.13334 22.5825 3.13334C22.7304 3.13334 22.8731 3.18796 22.9831 3.28672C23.0932 3.38547 23.1629 3.52139 23.1789 3.66839V4.86087C23.1629 5.00787 23.0932 5.14379 22.9831 5.24255C22.8731 5.3413 22.7304 5.39592 22.5825 5.39592C22.4346 5.39592 22.2919 5.3413 22.1818 5.24255C22.0717 5.14379 22.002 5.00787 21.9861 4.86087ZM17.8037 12.0177H5.87544C5.7284 12.0018 5.59244 11.9321 5.49366 11.822C5.39487 11.712 5.34024 11.5693 5.34024 11.4215C5.34024 11.2736 5.39487 11.131 5.49366 11.0209C5.59244 10.9109 5.7284 10.8412 5.87544 10.8252H17.8037C17.9507 10.8412 18.0867 10.9109 18.1855 11.0209C18.2842 11.131 18.3389 11.2736 18.3389 11.4215C18.3389 11.5693 18.2842 11.712 18.1855 11.822C18.0867 11.9321 17.9507 12.0018 17.8037 12.0177ZM25.5625 10.8252V12.0177C25.5716 12.1014 25.563 12.1861 25.5371 12.2663C25.5113 12.3465 25.4689 12.4203 25.4126 12.483C25.3563 12.5456 25.2875 12.5958 25.2106 12.6301C25.1336 12.6644 25.0504 12.6821 24.9661 12.6821C24.8819 12.6821 24.7986 12.6644 24.7216 12.6301C24.6447 12.5958 24.5759 12.5456 24.5196 12.483C24.4634 12.4203 24.4209 12.3465 24.3951 12.2663C24.3693 12.1861 24.3606 12.1014 24.3697 12.0177V10.8252C24.3606 10.7415 24.3693 10.6568 24.3951 10.5767C24.4209 10.4965 24.4634 10.4227 24.5196 10.36C24.5759 10.2973 24.6447 10.2472 24.7216 10.2129C24.7986 10.1786 24.8819 10.1608 24.9661 10.1608C25.0504 10.1608 25.1336 10.1786 25.2106 10.2129C25.2875 10.2472 25.3563 10.2973 25.4126 10.36C25.4689 10.4227 25.5113 10.4965 25.5371 10.5767C25.563 10.6568 25.5716 10.7415 25.5625 10.8252ZM23.1759 10.8252V12.0177C23.1599 12.1647 23.0902 12.3006 22.9801 12.3994C22.8701 12.4982 22.7274 12.5528 22.5795 12.5528C22.4316 12.5528 22.2889 12.4982 22.1788 12.3994C22.0687 12.3006 21.999 12.1647 21.9831 12.0177V10.8252C21.999 10.6782 22.0687 10.5423 22.1788 10.4436C22.2889 10.3448 22.4316 10.2902 22.5795 10.2902C22.7274 10.2902 22.8701 10.3448 22.9801 10.4436C23.0902 10.5423 23.1599 10.6782 23.1759 10.8252ZM17.8037 19.1746H5.87544C5.7284 19.1586 5.59244 19.0889 5.49366 18.9789C5.39487 18.8688 5.34024 18.7262 5.34024 18.5783C5.34024 18.4305 5.39487 18.2878 5.49366 18.1778C5.59244 18.0677 5.7284 17.998 5.87544 17.9821H17.8037C17.9507 17.998 18.0867 18.0677 18.1855 18.1778C18.2842 18.2878 18.3389 18.4305 18.3389 18.5783C18.3389 18.7262 18.2842 18.8688 18.1855 18.9789C18.0867 19.0889 17.9507 19.1586 17.8037 19.1746ZM25.5625 17.9821V19.1746C25.5716 19.2583 25.563 19.343 25.5371 19.4232C25.5113 19.5033 25.4689 19.5771 25.4126 19.6398C25.3563 19.7025 25.2875 19.7526 25.2106 19.7869C25.1336 19.8213 25.0504 19.839 24.9661 19.839C24.8819 19.839 24.7986 19.8213 24.7216 19.7869C24.6447 19.7526 24.5759 19.7025 24.5196 19.6398C24.4634 19.5771 24.4209 19.5033 24.3951 19.4232C24.3693 19.343 24.3606 19.2583 24.3697 19.1746V17.9821C24.3606 17.8984 24.3693 17.8137 24.3951 17.7335C24.4209 17.6534 24.4634 17.5795 24.5196 17.5169C24.5759 17.4542 24.6447 17.4041 24.7216 17.3697C24.7986 17.3354 24.8819 17.3177 24.9661 17.3177C25.0504 17.3177 25.1336 17.3354 25.2106 17.3697C25.2875 17.4041 25.3563 17.4542 25.4126 17.5169C25.4689 17.5795 25.5113 17.6534 25.5371 17.7335C25.563 17.8137 25.5716 17.8984 25.5625 17.9821ZM23.1759 17.9821V19.1746C23.185 19.2583 23.1763 19.343 23.1505 19.4232C23.1246 19.5033 23.0822 19.5771 23.026 19.6398C22.9697 19.7025 22.9009 19.7526 22.8239 19.7869C22.747 19.8213 22.6637 19.839 22.5795 19.839C22.4952 19.839 22.4119 19.8213 22.335 19.7869C22.2581 19.7526 22.1892 19.7025 22.133 19.6398C22.0767 19.5771 22.0343 19.5033 22.0085 19.4232C21.9826 19.343 21.974 19.2583 21.9831 19.1746V17.9821C21.999 17.8351 22.0687 17.6992 22.1788 17.6004C22.2889 17.5017 22.4316 17.447 22.5795 17.447C22.7274 17.447 22.8701 17.5017 22.9801 17.6004C23.0902 17.6992 23.1599 17.8351 23.1759 17.9821Z" fill="#151A6A"/>
</svg>
