<svg width="38" height="38" viewBox="0 0 38 38" fill="none" xmlns="http://www.w3.org/2000/svg">
<path d="M25.0618 24.2136C24.7969 24.2768 24.561 24.4274 24.3922 24.6411C24.2234 24.8549 24.1316 25.1193 24.1316 25.3916C24.1316 25.664 24.2234 25.9284 24.3922 26.1421C24.561 26.3559 24.7969 26.5065 25.0618 26.5696C25.3267 26.5065 25.5627 26.3559 25.7314 26.1421C25.9002 25.9284 25.992 25.664 25.992 25.3916C25.992 25.1193 25.9002 24.8549 25.7314 24.6411C25.5627 24.4274 25.3267 24.2768 25.0618 24.2136Z" fill="#C4A2FC"/>
<path d="M31.6565 31.4618C32.1696 31.4618 32.5855 30.9344 32.5855 30.2838C32.5855 29.6332 32.1696 29.1058 31.6565 29.1058C31.1435 29.1058 30.7275 29.6332 30.7275 30.2838C30.7275 30.9344 31.1435 31.4618 31.6565 31.4618Z" fill="#C4A2FC"/>
<path d="M35.6062 18.2056H16.2832C15.8028 18.2061 15.3422 18.3972 15.0025 18.7369C14.6628 19.0766 14.4717 19.5372 14.4712 20.0177V25.4531C14.4712 25.6122 14.5344 25.7648 14.6469 25.8773C14.7594 25.9899 14.9121 26.0531 15.0712 26.0531C15.3127 26.0474 15.5528 26.0901 15.7776 26.1786C16.0023 26.2671 16.2071 26.3996 16.3799 26.5684C16.5527 26.7372 16.69 26.9388 16.7837 27.1614C16.8775 27.384 16.9258 27.6232 16.9258 27.8647C16.9258 28.1063 16.8775 28.3454 16.7837 28.568C16.69 28.7906 16.5527 28.9923 16.3799 29.161C16.2071 29.3298 16.0023 29.4624 15.7776 29.5509C15.5528 29.6393 15.3127 29.682 15.0712 29.6763C14.9121 29.6763 14.7594 29.7396 14.6469 29.8521C14.5344 29.9646 14.4712 30.1172 14.4712 30.2764V35.7117C14.4717 36.1922 14.6628 36.6528 15.0025 36.9925C15.3422 37.3322 15.8028 37.5233 16.2832 37.5239H35.6062C36.0866 37.5233 36.5472 37.3322 36.8869 36.9925C37.2266 36.6528 37.4177 36.1922 37.4182 35.7117V30.2834C37.4182 30.1242 37.355 29.9716 37.2425 29.8591C37.1299 29.7466 36.9773 29.6833 36.8182 29.6833C36.3451 29.6722 35.8952 29.4765 35.5645 29.1379C35.2339 28.7994 35.0488 28.3449 35.0488 27.8717C35.0488 27.3985 35.2339 26.944 35.5645 26.6055C35.8952 26.267 36.3451 26.0712 36.8182 26.0601C36.897 26.0601 36.975 26.0446 37.0478 26.0144C37.1206 25.9843 37.1867 25.9401 37.2425 25.8843C37.2982 25.8286 37.3424 25.7625 37.3725 25.6897C37.4027 25.6169 37.4182 25.5389 37.4182 25.4601V20.0177C37.4177 19.5372 37.2266 19.0766 36.8869 18.7369C36.5472 18.3972 36.0866 18.2061 35.6062 18.2056ZM21.1132 35.7187C21.1132 35.8789 21.0496 36.0326 20.9363 36.1459C20.823 36.2591 20.6694 36.3228 20.5092 36.3228C20.349 36.3228 20.1954 36.2591 20.0821 36.1459C19.9688 36.0326 19.9052 35.8789 19.9052 35.7187V34.5067C19.9052 34.3465 19.9688 34.1928 20.0821 34.0795C20.1954 33.9663 20.349 33.9026 20.5092 33.9026C20.6694 33.9026 20.823 33.9663 20.9363 34.0795C21.0496 34.1928 21.1132 34.3465 21.1132 34.5067V35.7187ZM21.1132 32.0955C21.1132 32.2557 21.0496 32.4093 20.9363 32.5226C20.823 32.6359 20.6694 32.6995 20.5092 32.6995C20.349 32.6995 20.1954 32.6359 20.0821 32.5226C19.9688 32.4093 19.9052 32.2557 19.9052 32.0955V30.8874C19.9052 30.7272 19.9688 30.5736 20.0821 30.4603C20.1954 30.347 20.349 30.2834 20.5092 30.2834C20.6694 30.2834 20.823 30.347 20.9363 30.4603C21.0496 30.5736 21.1132 30.7272 21.1132 30.8874V32.0955ZM21.1132 28.4723C21.1132 28.6325 21.0496 28.7861 20.9363 28.8994C20.823 29.0127 20.6694 29.0763 20.5092 29.0763C20.349 29.0763 20.1954 29.0127 20.0821 28.8994C19.9688 28.7861 19.9052 28.6325 19.9052 28.4723V27.2642C19.9052 27.104 19.9688 26.9503 20.0821 26.8371C20.1954 26.7238 20.349 26.6601 20.5092 26.6601C20.6694 26.6601 20.823 26.7238 20.9363 26.8371C21.0496 26.9503 21.1132 27.104 21.1132 27.2642V28.4723ZM21.1132 24.849C21.1132 25.0092 21.0496 25.1628 20.9363 25.2761C20.823 25.3894 20.6694 25.4531 20.5092 25.4531C20.349 25.4531 20.1954 25.3894 20.0821 25.2761C19.9688 25.1628 19.9052 25.0092 19.9052 24.849V23.6409C19.9052 23.4807 19.9688 23.3271 20.0821 23.2138C20.1954 23.1005 20.349 23.0369 20.5092 23.0369C20.6694 23.0369 20.823 23.1005 20.9363 23.2138C21.0496 23.3271 21.1132 23.4807 21.1132 23.6409V24.849ZM21.1132 21.2258C21.1132 21.386 21.0496 21.5396 20.9363 21.6529C20.823 21.7662 20.6694 21.8298 20.5092 21.8298C20.349 21.8298 20.1954 21.7662 20.0821 21.6529C19.9688 21.5396 19.9052 21.386 19.9052 21.2258V20.0177C19.9052 19.8575 19.9688 19.7038 20.0821 19.5906C20.1954 19.4773 20.349 19.4136 20.5092 19.4136C20.6694 19.4136 20.823 19.4773 20.9363 19.5906C21.0496 19.7038 21.1132 19.8575 21.1132 20.0177V21.2258ZM22.9252 25.393C22.8946 24.7937 23.102 24.2066 23.5023 23.7595C23.9025 23.3124 24.4632 23.0415 25.0622 23.0059C25.6495 23.0707 26.1923 23.35 26.5865 23.7902C26.9808 24.2304 27.1988 24.8006 27.1988 25.3915C27.1988 25.9825 26.9808 26.5527 26.5865 26.9929C26.1923 27.4331 25.6495 27.7123 25.0622 27.7772C24.4635 27.7418 23.9029 27.4713 23.5027 27.0246C23.1024 26.5779 22.8949 25.9921 22.9252 25.393ZM26.3152 32.4365C26.2418 32.4062 26.1752 32.3617 26.1191 32.3054C26.0631 32.2492 26.0188 32.1824 25.9887 32.1089C25.9587 32.0355 25.9435 31.9567 25.9441 31.8774C25.9447 31.798 25.961 31.7195 25.9922 31.6465L29.4622 23.3769C29.5241 23.2293 29.6421 23.1124 29.7903 23.0518C29.9384 22.9912 30.1046 22.992 30.2522 23.0539C30.3998 23.1158 30.5167 23.2339 30.5773 23.382C30.6379 23.5302 30.6371 23.6963 30.5752 23.8439L27.1052 32.1135C27.0749 32.1869 27.0304 32.2535 26.9741 32.3096C26.9179 32.3656 26.8511 32.4099 26.7776 32.44C26.7042 32.47 26.6255 32.4852 26.5461 32.4846C26.4667 32.484 26.3882 32.4677 26.3152 32.4365ZM31.6582 32.6685C31.1752 32.7218 30.6874 32.6272 30.2593 32.3972C29.8313 32.1672 29.4831 31.8127 29.2609 31.3805C29.0387 30.9483 28.9528 30.4589 29.0148 29.9769C29.0767 29.4949 29.2835 29.0431 29.6077 28.6811C29.932 28.3192 30.3585 28.0643 30.8308 27.95C31.3031 27.8357 31.799 27.8675 32.2528 28.0411C32.7066 28.2148 33.0971 28.5221 33.3725 28.9225C33.6479 29.3229 33.7953 29.7974 33.7952 30.2834C33.8255 30.8824 33.618 31.4692 33.2177 31.9159C32.8175 32.3627 32.2569 32.6332 31.6582 32.6685Z" fill="#C4A2FC"/>
<path d="M2.99771 26.0568H21.113C21.7532 26.056 22.367 25.8013 22.8197 25.3485C23.2724 24.8958 23.5271 24.282 23.5279 23.6417V0.689082C23.5288 0.579427 23.4996 0.47162 23.4436 0.377375C23.3875 0.283129 23.3067 0.206049 23.2099 0.154509C23.1131 0.10297 23.0041 0.0789406 22.8946 0.0850335C22.7851 0.0911263 22.6794 0.127108 22.5889 0.189069L21.112 1.1731L19.637 0.189069C19.538 0.122431 19.4214 0.0868362 19.3021 0.0868362C19.1827 0.0868362 19.0661 0.122431 18.9671 0.189069L17.4901 1.1731L16.0132 0.189069C15.9142 0.122431 15.7975 0.0868362 15.6782 0.0868362C15.5589 0.0868362 15.4422 0.122431 15.3432 0.189069L13.8663 1.1731L12.3903 0.189069C12.2913 0.122431 12.1747 0.0868362 12.0553 0.0868362C11.936 0.0868362 11.8194 0.122431 11.7204 0.189069L10.2434 1.1731L8.76748 0.189069C8.66847 0.122431 8.55184 0.0868362 8.43249 0.0868362C8.31315 0.0868362 8.19652 0.122431 8.09751 0.189069L6.62057 1.1731L5.14462 0.189069C5.05415 0.127108 4.94844 0.0911263 4.83895 0.0850335C4.72947 0.0789406 4.62041 0.10297 4.52363 0.154509C4.42684 0.206049 4.34603 0.283129 4.28997 0.377375C4.23392 0.47162 4.20476 0.579427 4.20566 0.689082V17.8835L2.99771 18.6836L1.52077 17.6995C1.4303 17.6376 1.32458 17.6016 1.2151 17.5955C1.10562 17.5894 0.996558 17.6134 0.899773 17.665C0.802987 17.7165 0.722176 17.7936 0.666118 17.8878C0.610061 17.9821 0.580901 18.0899 0.581808 18.1996V23.6347C0.582601 24.275 0.837283 24.8888 1.28999 25.3415C1.7427 25.7943 2.35648 26.049 2.99671 26.0498L2.99771 26.0568ZM5.41261 23.6417V1.82211L6.28558 2.40413C6.38459 2.47077 6.50122 2.50636 6.62057 2.50636C6.73991 2.50636 6.85654 2.47077 6.95555 2.40413L8.43249 1.4201L9.90943 2.40413C10.0084 2.47077 10.1251 2.50636 10.2444 2.50636C10.3638 2.50636 10.4804 2.47077 10.5794 2.40413L12.0563 1.4201L13.5333 2.40413C13.6323 2.47077 13.7489 2.50636 13.8683 2.50636C13.9876 2.50636 14.1043 2.47077 14.2033 2.40413L15.6822 1.4201L17.1591 2.40413C17.2582 2.47077 17.3748 2.50636 17.4941 2.50636C17.6135 2.50636 17.7301 2.47077 17.8291 2.40413L19.3061 1.4201L20.783 2.40413C20.882 2.47077 20.9986 2.50636 21.118 2.50636C21.2373 2.50636 21.354 2.47077 21.453 2.40413L22.3259 1.82211V23.6417C22.3257 23.962 22.1983 24.2691 21.9718 24.4956C21.7454 24.7221 21.4383 24.8495 21.118 24.8497H5.08963C5.30248 24.4828 5.41328 24.0659 5.41261 23.6417ZM1.79076 19.3346L2.66372 19.9166C2.76273 19.9832 2.87937 20.0188 2.99871 20.0188C3.11805 20.0188 3.23469 19.9832 3.3337 19.9166L4.20666 19.3346V23.6417C4.21131 23.8032 4.18352 23.964 4.12493 24.1146C4.06634 24.2651 3.97814 24.4024 3.86556 24.5183C3.75298 24.6342 3.6183 24.7263 3.46949 24.7892C3.32068 24.8521 3.16077 24.8845 2.99921 24.8845C2.83766 24.8845 2.67774 24.8521 2.52893 24.7892C2.38012 24.7263 2.24544 24.6342 2.13286 24.5183C2.02028 24.4024 1.93208 24.2651 1.87349 24.1146C1.8149 23.964 1.78711 23.8032 1.79176 23.6417L1.79076 19.3346Z" fill="#151A6A"/>
<path d="M10.2404 6.12917H17.4904C17.6507 6.12917 17.8045 6.06548 17.9178 5.95211C18.0312 5.83875 18.0949 5.68499 18.0949 5.52467C18.0949 5.36434 18.0312 5.21059 17.9178 5.09722C17.8045 4.98385 17.6507 4.92017 17.4904 4.92017H10.2404C10.0802 4.92017 9.92656 4.9838 9.81329 5.09707C9.70002 5.21035 9.63638 5.36398 9.63638 5.52417C9.63638 5.68436 9.70002 5.83799 9.81329 5.95126C9.92656 6.06453 10.0802 6.12917 10.2404 6.12917Z" fill="#151A6A"/>
<path d="M8.42846 9.75231H13.8635C14.0237 9.75231 14.1773 9.68868 14.2906 9.5754C14.4038 9.46213 14.4675 9.3085 14.4675 9.14831C14.4675 8.98812 14.4038 8.83449 14.2906 8.72122C14.1773 8.60795 14.0237 8.54431 13.8635 8.54431H8.42846C8.26827 8.54431 8.11464 8.60795 8.00137 8.72122C7.8881 8.83449 7.82446 8.98812 7.82446 9.14831C7.82446 9.3085 7.8881 9.46213 8.00137 9.5754C8.11464 9.68868 8.26827 9.75231 8.42846 9.75231Z" fill="#151A6A"/>
<path d="M19.3011 8.54321H17.4861C17.3259 8.54321 17.1723 8.60685 17.059 8.72012C16.9457 8.83339 16.8821 8.98702 16.8821 9.14721C16.8821 9.3074 16.9457 9.46103 17.059 9.5743C17.1723 9.68758 17.3259 9.75121 17.4861 9.75121H19.2981C19.4583 9.75121 19.6119 9.68758 19.7252 9.5743C19.8384 9.46103 19.9021 9.3074 19.9021 9.14721C19.9021 8.98702 19.8384 8.83339 19.7252 8.72012C19.6119 8.60685 19.4583 8.54321 19.2981 8.54321H19.3011Z" fill="#151A6A"/>
<path d="M8.42846 13.3754H13.8635C14.0237 13.3754 14.1773 13.3117 14.2906 13.1985C14.4038 13.0852 14.4675 12.9315 14.4675 12.7714C14.4675 12.6112 14.4038 12.4575 14.2906 12.3443C14.1773 12.231 14.0237 12.1674 13.8635 12.1674H8.42846C8.26827 12.1674 8.11464 12.231 8.00137 12.3443C7.8881 12.4575 7.82446 12.6112 7.82446 12.7714C7.82446 12.9315 7.8881 13.0852 8.00137 13.1985C8.11464 13.3117 8.26827 13.3754 8.42846 13.3754Z" fill="#151A6A"/>
<path d="M19.3011 12.1664H17.4861C17.3259 12.1664 17.1723 12.23 17.059 12.3433C16.9457 12.4566 16.8821 12.6102 16.8821 12.7704C16.8821 12.9306 16.9457 13.0842 17.059 13.1975C17.1723 13.3107 17.3259 13.3744 17.4861 13.3744H19.2981C19.4583 13.3744 19.6119 13.3107 19.7252 13.1975C19.8384 13.0842 19.9021 12.9306 19.9021 12.7704C19.9021 12.6102 19.8384 12.4566 19.7252 12.3433C19.6119 12.23 19.4583 12.1664 19.2981 12.1664H19.3011Z" fill="#151A6A"/>
<path d="M14.4705 16.3944C14.4705 16.2353 14.4072 16.0827 14.2947 15.9702C14.1822 15.8576 14.0296 15.7944 13.8705 15.7944H8.42846C8.26827 15.7944 8.11464 15.8581 8.00137 15.9713C7.8881 16.0846 7.82446 16.2382 7.82446 16.3984C7.82446 16.5586 7.8881 16.7123 8.00137 16.8255C8.11464 16.9388 8.26827 17.0024 8.42846 17.0024H13.8635C14.0226 17.0024 14.1752 16.9392 14.2877 16.8267C14.4002 16.7142 14.4635 16.5616 14.4635 16.4024L14.4705 16.3944Z" fill="#151A6A"/>
<path d="M19.3011 15.7894H17.4861C17.3259 15.7894 17.1723 15.8531 17.059 15.9663C16.9457 16.0796 16.8821 16.2332 16.8821 16.3934C16.8821 16.5536 16.9457 16.7072 17.059 16.8205C17.1723 16.9338 17.3259 16.9974 17.4861 16.9974H19.2981C19.4583 16.9974 19.6119 16.9338 19.7252 16.8205C19.8384 16.7072 19.9021 16.5536 19.9021 16.3934C19.9021 16.2332 19.8384 16.0796 19.7252 15.9663C19.6119 15.8531 19.4583 15.7894 19.2981 15.7894H19.3011Z" fill="#151A6A"/>
<path d="M16.2833 21.2246H11.4483C11.369 21.2246 11.2905 21.2402 11.2172 21.2706C11.1439 21.3009 11.0773 21.3454 11.0212 21.4015C10.9651 21.4576 10.9207 21.5242 10.8903 21.5975C10.86 21.6707 10.8443 21.7493 10.8443 21.8286C10.8443 21.9079 10.86 21.9865 10.8903 22.0597C10.9207 22.133 10.9651 22.1996 11.0212 22.2557C11.0773 22.3118 11.1439 22.3563 11.2172 22.3866C11.2905 22.417 11.369 22.4326 11.4483 22.4326H16.2793C16.4395 22.4326 16.5932 22.369 16.7064 22.2557C16.8197 22.1424 16.8833 21.9888 16.8833 21.8286C16.8833 21.6684 16.8197 21.5148 16.7064 21.4015C16.5932 21.2882 16.4395 21.2246 16.2793 21.2246H16.2833Z" fill="#151A6A"/>
</svg>
