<svg width="40" height="41" viewBox="0 0 40 41" fill="none" xmlns="http://www.w3.org/2000/svg">
<path d="M20.788 26.6417L22.358 34.5104C22.3876 34.6565 22.4668 34.7879 22.5821 34.8823C22.6974 34.9767 22.8418 35.0283 22.9909 35.0285H32.4885C32.6375 35.0283 32.7819 34.9767 32.8973 34.8823C33.0126 34.7879 33.0918 34.6565 33.1214 34.5104L34.7022 26.6417H20.788ZM24.609 33.7323C24.4396 33.7564 24.2675 33.7123 24.1306 33.6096C23.9938 33.5069 23.9032 33.3541 23.8789 33.1848L23.2342 28.671C23.2216 28.5075 23.2716 28.3452 23.3742 28.2173C23.4767 28.0893 23.6242 28.0052 23.7865 27.9819C23.9489 27.9587 24.114 27.9981 24.2483 28.0922C24.3827 28.1863 24.4762 28.3279 24.5099 28.4885L25.1546 33.0022C25.1787 33.1716 25.1345 33.3437 25.0319 33.4806C24.9292 33.6175 24.7764 33.708 24.607 33.7323H24.609ZM28.3888 33.0935C28.3888 33.2646 28.3208 33.4287 28.1998 33.5497C28.0788 33.6707 27.9147 33.7387 27.7436 33.7387C27.5725 33.7387 27.4084 33.6707 27.2874 33.5497C27.1664 33.4287 27.0984 33.2646 27.0984 33.0935V28.5797C27.0984 28.4086 27.1664 28.2445 27.2874 28.1235C27.4084 28.0025 27.5725 27.9345 27.7436 27.9345C27.9147 27.9345 28.0788 28.0025 28.1998 28.1235C28.3208 28.2445 28.3888 28.4086 28.3888 28.5797V33.0935ZM31.6083 33.1848C31.5746 33.3453 31.4811 33.4869 31.3468 33.581C31.2124 33.6751 31.0473 33.7145 30.8849 33.6913C30.7226 33.668 30.5752 33.5839 30.4726 33.4559C30.37 33.328 30.32 33.1658 30.3327 33.0022L30.9773 28.4885C31.011 28.3279 31.1045 28.1863 31.2389 28.0922C31.3732 27.9981 31.5383 27.9587 31.7007 27.9819C31.863 28.0052 32.0105 28.0893 32.113 28.2173C32.2156 28.3452 32.2656 28.5075 32.253 28.671L31.6083 33.1848Z" fill="#C4A2FC"/>
<path d="M31.2609 22.5931C31.222 22.4584 31.1404 22.34 31.0283 22.2558C30.9163 22.1716 30.7799 22.126 30.6398 22.126H24.8445C24.7045 22.1262 24.5683 22.1719 24.4565 22.2561C24.3447 22.3403 24.2632 22.4586 24.2243 22.5931L23.4393 25.3514H32.0459L31.2609 22.5931Z" fill="#C4A2FC"/>
<path d="M27.7421 15.6742C25.3178 15.6742 22.9478 16.3931 20.932 17.74C18.9162 19.0869 17.3451 21.0013 16.4173 23.2412C15.4896 25.481 15.2468 27.9457 15.7198 30.3235C16.1928 32.7013 17.3602 34.8854 19.0745 36.5997C20.7888 38.314 22.9729 39.4814 25.3507 39.9544C27.7285 40.4274 30.1932 40.1846 32.433 39.2569C34.6729 38.3291 36.5873 36.758 37.9342 34.7422C39.2811 32.7264 40 30.3564 40 27.9321C40 26.3223 39.6829 24.7284 39.0669 23.2412C38.4509 21.754 37.548 20.4027 36.4098 19.2644C35.2715 18.1262 33.9202 17.2233 32.433 16.6073C30.9458 15.9913 29.3519 15.6742 27.7421 15.6742ZM35.9621 26.8949L34.3921 34.7636C34.3035 35.2018 34.0662 35.596 33.7204 35.8794C33.3746 36.1628 32.9415 36.318 32.4944 36.3189H22.9938C22.5466 36.318 22.1134 36.1626 21.7676 35.879C21.4217 35.5954 21.1845 35.201 21.0961 34.7626L19.5261 26.8949C19.4887 26.7084 19.4931 26.5159 19.5389 26.3312C19.5846 26.1466 19.6707 25.9744 19.7908 25.8269C19.9109 25.6794 20.0621 25.5603 20.2337 25.478C20.4052 25.3958 20.5928 25.3526 20.7831 25.3514H22.0901L22.9791 22.2388C23.096 21.8345 23.3409 21.479 23.6771 21.2258C24.0133 20.9725 24.4226 20.8353 24.8435 20.8346H30.6388C31.0597 20.8353 31.469 20.9725 31.8052 21.2258C32.1414 21.479 32.3863 21.8345 32.5032 22.2388L33.3922 25.3514H34.6973C34.8882 25.3514 35.0767 25.3938 35.2492 25.4755C35.4217 25.5573 35.5739 25.6762 35.6949 25.8239C35.8159 25.9715 35.9026 26.1441 35.9488 26.3294C35.995 26.5146 35.9996 26.7077 35.9621 26.8949Z" fill="#C4A2FC"/>
<path d="M30.3209 0.189941H1.93504C1.42207 0.19072 0.930342 0.39484 0.56762 0.757562C0.204898 1.12028 0.000778598 1.61202 0 2.12498V22.7706C0.000778598 23.2836 0.204898 23.7753 0.56762 24.1381C0.930342 24.5008 1.42207 24.7049 1.93504 24.7057H30.3209C30.8338 24.7049 31.3256 24.5008 31.6883 24.1381C32.051 23.7753 32.2551 23.2836 32.2559 22.7706V2.12498C32.2551 1.61202 32.051 1.12028 31.6883 0.757562C31.3256 0.39484 30.8338 0.19072 30.3209 0.189941ZM1.29035 5.35136H30.9675V7.93207H1.29035V5.35136ZM1.93504 1.4803H30.3209C30.4918 1.48056 30.6556 1.54856 30.7764 1.66941C30.8973 1.79025 30.9653 1.95408 30.9656 2.12498V4.061H1.29035V2.12498C1.29061 1.95408 1.35862 1.79025 1.47947 1.66941C1.60031 1.54856 1.76414 1.48056 1.93504 1.4803ZM30.3209 23.4153H1.93504C1.76414 23.4151 1.60031 23.3471 1.47947 23.2262C1.35862 23.1054 1.29061 22.9416 1.29035 22.7706V9.21751H30.9675V13.7313H21.9399C21.7688 13.7313 21.6047 13.7993 21.4837 13.9203C21.3627 14.0413 21.2948 14.2054 21.2948 14.3765C21.2948 14.5476 21.3627 14.7117 21.4837 14.8327C21.6047 14.9537 21.7688 15.0217 21.9399 15.0217H30.9675V17.6024H25.8071C25.636 17.6024 25.4719 17.6703 25.3509 17.7913C25.2299 17.9123 25.1619 18.0764 25.1619 18.2475C25.1619 18.4187 25.2299 18.5828 25.3509 18.7038C25.4719 18.8247 25.636 18.8927 25.8071 18.8927H30.9685V22.7638C30.9693 22.8492 30.9531 22.934 30.9209 23.0131C30.8886 23.0923 30.841 23.1642 30.7808 23.2248C30.7205 23.2855 30.6489 23.3335 30.5699 23.3662C30.491 23.3989 30.4063 23.4156 30.3209 23.4153Z" fill="#151A6A"/>
<path d="M12.2579 13.7382H4.51575C4.34477 13.7382 4.18079 13.8061 4.05989 13.927C3.93899 14.0479 3.87106 14.2119 3.87106 14.3828V18.2519C3.87106 18.4229 3.93899 18.5869 4.05989 18.7078C4.18079 18.8287 4.34477 18.8966 4.51575 18.8966H12.2579C12.4282 18.8956 12.5911 18.8272 12.7112 18.7064C12.8313 18.5856 12.8986 18.4222 12.8986 18.2519V14.3828C12.8986 14.2125 12.8313 14.0492 12.7112 13.9284C12.5911 13.8076 12.4282 13.7392 12.2579 13.7382ZM11.6132 17.6092H5.16142V15.0285H11.6132V17.6092Z" fill="#151A6A"/>
</svg>
