<svg width="32" height="31" viewBox="0 0 32 31" fill="none" xmlns="http://www.w3.org/2000/svg">
<path d="M26.7441 26.4172H22.1535V19.2239C22.1535 17.5085 22.1186 15.3011 19.7613 15.3011C17.3678 15.3011 17.0023 17.1675 17.0023 19.0973V26.4172H12.4117V11.625H16.8215V13.6413H16.8809C17.497 12.4788 18.9953 11.2517 21.2338 11.2517C25.8851 11.2517 26.7453 14.313 26.7453 18.2978V26.4172H26.7441ZM7.22697 9.60096C5.7493 9.60096 4.56226 8.40487 4.56226 6.93367C4.56226 5.46375 5.75059 4.26896 7.22697 4.26896C8.69947 4.26896 9.89297 5.46375 9.89297 6.93367C9.89297 8.40487 8.69818 9.60096 7.22697 9.60096ZM9.52872 26.4172H4.92522V11.625H9.52872V26.4172ZM29.0406 0H2.62089C1.35634 0 0.333344 0.99975 0.333344 2.23329V28.7667C0.333344 30.0015 1.35634 31 2.62089 31H29.0368C30.3 31 31.3333 30.0015 31.3333 28.7667V2.23329C31.3333 0.99975 30.3 0 29.0368 0H29.0406Z" fill="black"/>
</svg>
