<svg width="17" height="18" viewBox="0 0 17 18" fill="none" xmlns="http://www.w3.org/2000/svg">
<path fill-rule="evenodd" clip-rule="evenodd" d="M6.49872 1.12681C6.58227 1.21033 6.63911 1.3168 6.66204 1.43269C6.68496 1.54859 6.67293 1.66868 6.62747 1.77772C6.26412 2.64976 6.07771 3.58531 6.07908 4.53001C6.07908 6.42708 6.83269 8.24646 8.17413 9.58789C9.51557 10.9293 11.335 11.6829 13.232 11.6829C14.1767 11.6843 15.1123 11.4979 15.9843 11.1345C16.0933 11.0892 16.2133 11.0772 16.3291 11.1C16.4449 11.1229 16.5513 11.1797 16.6348 11.2631C16.7183 11.3465 16.7752 11.4529 16.7982 11.5686C16.8212 11.6844 16.8093 11.8044 16.764 11.9134C16.1298 13.434 15.0598 14.7329 13.6888 15.6466C12.3178 16.5602 10.707 17.0477 9.05948 17.0476C4.45059 17.0476 0.714355 13.3114 0.714355 8.70255C0.714355 5.231 2.83402 2.25538 5.84859 0.998055C5.95753 0.952768 6.07747 0.940829 6.1932 0.963749C6.30893 0.986669 6.41526 1.04342 6.49872 1.12681Z" fill="#C4A2FC"/>
</svg>
