<svg width="17" height="17" viewBox="0 0 17 17" fill="none" xmlns="http://www.w3.org/2000/svg">
<path d="M8.04762 0C8.2118 0 8.36926 0.0652208 8.48535 0.181315C8.60145 0.297409 8.66667 0.454866 8.66667 0.619048V2.47619C8.66667 2.64037 8.60145 2.79783 8.48535 2.91392C8.36926 3.03002 8.2118 3.09524 8.04762 3.09524C7.88344 3.09524 7.72598 3.03002 7.60989 2.91392C7.49379 2.79783 7.42857 2.64037 7.42857 2.47619V0.619048C7.42857 0.454866 7.49379 0.297409 7.60989 0.181315C7.72598 0.0652208 7.88344 0 8.04762 0ZM4.33333 8.04762C4.33333 7.06253 4.72466 6.11779 5.42122 5.42122C6.11779 4.72466 7.06253 4.33333 8.04762 4.33333C9.03271 4.33333 9.97745 4.72466 10.674 5.42122C11.3706 6.11779 11.7619 7.06253 11.7619 8.04762C11.7619 9.03271 11.3706 9.97745 10.674 10.674C9.97745 11.3706 9.03271 11.7619 8.04762 11.7619C7.06253 11.7619 6.11779 11.3706 5.42122 10.674C4.72466 9.97745 4.33333 9.03271 4.33333 8.04762ZM13.7379 3.23225C13.8473 3.1149 13.9068 2.95969 13.904 2.79931C13.9011 2.63894 13.8362 2.48592 13.7227 2.3725C13.6093 2.25908 13.4563 2.19411 13.2959 2.19128C13.1355 2.18845 12.9803 2.24798 12.863 2.35733L11.5498 3.66971C11.4906 3.72679 11.4434 3.79508 11.411 3.87059C11.3785 3.9461 11.3614 4.02732 11.3606 4.10952C11.3599 4.19172 11.3755 4.27324 11.4066 4.34933C11.4377 4.42542 11.4836 4.49456 11.5417 4.55271C11.5998 4.61087 11.6689 4.65686 11.7449 4.68803C11.821 4.71919 11.9025 4.73489 11.9847 4.73421C12.0669 4.73354 12.1482 4.7165 12.2237 4.68409C12.2992 4.65169 12.3676 4.60456 12.4247 4.54546L13.7379 3.23225ZM16.0952 8.04762C16.0952 8.2118 16.03 8.36926 15.9139 8.48535C15.7978 8.60145 15.6404 8.66667 15.4762 8.66667H13.619C13.4549 8.66667 13.2974 8.60145 13.1813 8.48535C13.0652 8.36926 13 8.2118 13 8.04762C13 7.88344 13.0652 7.72598 13.1813 7.60989C13.2974 7.49379 13.4549 7.42857 13.619 7.42857H15.4762C15.6404 7.42857 15.7978 7.49379 15.9139 7.60989C16.03 7.72598 16.0952 7.88344 16.0952 8.04762ZM12.863 13.7379C12.9803 13.8473 13.1355 13.9068 13.2959 13.904C13.4563 13.9011 13.6093 13.8362 13.7227 13.7227C13.8362 13.6093 13.9011 13.4563 13.904 13.2959C13.9068 13.1355 13.8473 12.9803 13.7379 12.863L12.4255 11.5498C12.3684 11.4906 12.3002 11.4434 12.2246 11.411C12.1491 11.3785 12.0679 11.3614 11.9857 11.3606C11.9035 11.3599 11.822 11.3755 11.7459 11.4066C11.6698 11.4377 11.6007 11.4836 11.5425 11.5417C11.4844 11.5998 11.4384 11.6689 11.4072 11.7449C11.376 11.821 11.3603 11.9025 11.361 11.9847C11.3617 12.0669 11.3787 12.1482 11.4111 12.2237C11.4436 12.2992 11.4907 12.3676 11.5498 12.4247L12.863 13.7379ZM8.04762 13C8.2118 13 8.36926 13.0652 8.48535 13.1813C8.60145 13.2974 8.66667 13.4549 8.66667 13.619V15.4762C8.66667 15.6404 8.60145 15.7978 8.48535 15.9139C8.36926 16.03 8.2118 16.0952 8.04762 16.0952C7.88344 16.0952 7.72598 16.03 7.60989 15.9139C7.49379 15.7978 7.42857 15.6404 7.42857 15.4762V13.619C7.42857 13.4549 7.49379 13.2974 7.60989 13.1813C7.72598 13.0652 7.88344 13 8.04762 13ZM4.54629 12.4247C4.659 12.3079 4.72132 12.1515 4.71983 11.9892C4.71835 11.8269 4.65317 11.6716 4.53834 11.5569C4.42351 11.4422 4.26821 11.3772 4.1059 11.3758C3.94358 11.3745 3.78724 11.437 3.67054 11.5498L2.35733 12.8622C2.24451 12.9789 2.18204 13.1352 2.18337 13.2975C2.18471 13.4598 2.24974 13.6151 2.36446 13.73C2.47919 13.8448 2.63442 13.91 2.79673 13.9115C2.95904 13.9129 3.11545 13.8506 3.23225 13.7379L4.54546 12.4255L4.54629 12.4247ZM3.09524 8.04762C3.09524 8.2118 3.03002 8.36926 2.91392 8.48535C2.79783 8.60145 2.64037 8.66667 2.47619 8.66667H0.619048C0.454866 8.66667 0.297409 8.60145 0.181315 8.48535C0.0652208 8.36926 0 8.2118 0 8.04762C0 7.88344 0.0652208 7.72598 0.181315 7.60989C0.297409 7.49379 0.454866 7.42857 0.619048 7.42857H2.47619C2.64037 7.42857 2.79783 7.49379 2.91392 7.60989C3.03002 7.72598 3.09524 7.88344 3.09524 8.04762ZM3.67054 4.54546C3.78789 4.65481 3.9431 4.71434 4.10348 4.71151C4.26385 4.70868 4.41687 4.64371 4.53029 4.53029C4.64371 4.41687 4.70868 4.26385 4.71151 4.10348C4.71434 3.9431 4.65481 3.78789 4.54546 3.67054L3.23308 2.35733C3.11638 2.24451 2.96004 2.18204 2.79772 2.18337C2.63541 2.18471 2.48011 2.24974 2.36528 2.36446C2.25045 2.47919 2.18527 2.63442 2.18379 2.79673C2.1823 2.95904 2.24462 3.11545 2.35733 3.23225L3.67054 4.54546Z" fill="#C4A2FC"/>
</svg>
