<svg width="32" height="27" viewBox="0 0 32 27" fill="none" xmlns="http://www.w3.org/2000/svg">
<path d="M31.7917 3.88806C30.6389 4.39375 29.4105 4.72894 28.1298 4.89169C29.4473 4.10506 30.4529 2.86894 30.9256 1.379C29.6973 2.11137 28.341 2.62869 26.8956 2.91738C25.7292 1.67544 24.0669 0.90625 22.2534 0.90625C18.7349 0.90625 15.9022 3.76213 15.9022 7.26319C15.9022 7.76694 15.9449 8.25131 16.0495 8.71244C10.7659 8.45475 6.09075 5.92244 2.95006 2.06488C2.40175 3.01619 2.08012 4.10506 2.08012 5.27725C2.08012 7.47825 3.21356 9.42931 4.90306 10.5589C3.882 10.5395 2.88031 10.2431 2.03169 9.77612C2.03169 9.7955 2.03169 9.82069 2.03169 9.84587C2.03169 12.9342 4.23462 15.4995 7.12344 16.0904C6.60612 16.2319 6.04231 16.2997 5.45719 16.2997C5.05031 16.2997 4.63956 16.2764 4.254 16.1912C5.07744 18.708 7.41406 20.5583 10.1924 20.6184C8.03019 22.3098 5.28475 23.3289 2.31262 23.3289C1.79144 23.3289 1.29156 23.3057 0.791687 23.2417C3.60687 25.0572 6.94325 26.0938 10.5412 26.0938C22.2359 26.0938 28.6297 16.4062 28.6297 8.00912C28.6297 7.72819 28.62 7.45694 28.6064 7.18763C29.8678 6.2925 30.9276 5.17456 31.7917 3.88806Z" fill="black"/>
</svg>
